<svg width="11" height="12" viewBox="0 0 11 12" fill="none" xmlns="http://www.w3.org/2000/svg">
<path d="M0.667969 1.9339C0.830833 1.89691 1.00255 1.83968 1.16618 1.75507C1.45632 1.60505 1.7464 1.35154 1.88012 0.963938C2.43882 0.785713 3.42308 0.585958 4.62296 0.521312C5.93034 0.450875 7.45408 0.54329 8.91565 0.975798C9.06367 1.36325 9.44777 1.73288 10.1028 1.91821V5.18774C10.1028 6.58296 9.51954 7.73929 8.59895 8.77541C7.73839 9.74396 6.60374 10.5843 5.41849 11.3918C4.26638 10.5687 3.11579 9.65392 2.23227 8.61782C1.27975 7.5008 0.667969 6.27867 0.667969 4.90953V1.9339Z" stroke="#23C16B"/>
<path d="M9.65403 1.71429L2.06509 8.14287" stroke="#23C16B"/>
<path d="M10.1293 2.57135L3.01468 8.99992" stroke="#23C16B" stroke-width="0.3" stroke-linecap="round"/>
</svg>
