<svg width="21" height="13" viewBox="0 0 21 13" fill="none" xmlns="http://www.w3.org/2000/svg">
<g clip-path="url(#clip0_3217_24884)">
<path d="M0.849743 9.5969H17.816C18.0425 9.5969 18.2039 9.41103 18.2039 9.19121V0.708091C18.2039 0.504363 18.0409 0.32019 17.816 0.32019H0.849743C0.646015 0.32019 0.461841 0.483151 0.461841 0.708091V9.20899C0.461841 9.41272 0.624803 9.5969 0.849743 9.5969ZM17.4281 1.11378V8.80331H1.25543V1.11378H17.4281Z" fill="#198155" stroke="#198155" stroke-width="0.1"/>
</g>
<g clip-path="url(#clip1_3217_24884)">
<rect x="2.54327" y="2.14286" width="17.8571" height="10" rx="1" fill="#F2FDED"/>
<path d="M11.8457 5.07855L11.8459 5.07857V5.07403V4.78948C11.8459 4.56293 11.66 4.40157 11.4402 4.40157C11.2137 4.40157 11.0523 4.58744 11.0523 4.80726V5.09181C11.0523 5.31505 11.217 5.47971 11.4402 5.47971V5.42971L11.4447 5.47951C11.6644 5.45954 11.8257 5.29822 11.8457 5.07855ZM11.1412 9.39564C11.1412 9.61888 11.3059 9.78354 11.5291 9.78354C11.7524 9.78354 11.9348 9.60109 11.9348 9.37785V9.11109C11.9348 8.88454 11.7489 8.72318 11.5291 8.72318C11.3026 8.72318 11.1412 8.90905 11.1412 9.12887V9.39564Z" fill="#198155" stroke="#198155" stroke-width="0.1"/>
<path d="M11.4242 4.7928C10.8984 4.77471 10.2129 5.00959 9.98859 5.60772L9.98858 5.60772L9.98841 5.60819C9.84026 6.01562 9.91437 6.49549 10.173 6.84648L10.173 6.84649L10.1739 6.84764C10.5084 7.27503 10.9737 7.32903 11.3466 7.36454C11.7053 7.40042 11.9153 7.43592 12.0602 7.59614C12.1957 7.76602 12.2572 7.9794 12.2107 8.13554C12.1723 8.24979 12.0625 8.34382 11.9229 8.41256C11.7844 8.48076 11.6262 8.51914 11.5079 8.52758L11.5078 8.52759C11.0516 8.56138 10.7102 8.23901 10.6399 8.16863L10.6399 8.16855L10.6374 8.16636C10.4763 8.02538 10.2347 8.02538 10.0736 8.16636L10.0733 8.16602L10.0689 8.17106C9.92793 8.33219 9.92793 8.57375 10.0689 8.73487L10.0688 8.73494L10.0712 8.7373C10.2153 8.88139 10.7079 9.33883 11.4226 9.33883H11.4234C11.4762 9.33883 11.5337 9.33883 11.6091 9.32039C11.8631 9.29274 12.1578 9.21096 12.413 9.0583C12.6697 8.90476 12.8887 8.6779 12.9821 8.3606C13.1121 7.93324 12.9819 7.41755 12.6692 7.06803L12.6689 7.06773C12.2991 6.66093 11.8183 6.60696 11.4453 6.57144C11.1033 6.53542 10.9313 6.49984 10.8221 6.35965C10.7252 6.23015 10.693 6.03431 10.7407 5.89058C10.7792 5.7832 10.8731 5.69832 10.9965 5.64184C11.1198 5.58543 11.2672 5.56007 11.4017 5.56848L11.4023 5.56851C11.7104 5.58392 11.9048 5.78399 11.9907 5.87251C11.9973 5.87925 12.0032 5.88535 12.0085 5.89067C12.1507 6.05184 12.3948 6.0726 12.5581 5.92967C12.7204 5.78763 12.7417 5.54272 12.5984 5.37894L12.5981 5.37865C12.4535 5.21598 12.0502 4.81126 11.4242 4.7928ZM11.4242 4.7928C11.4241 4.7928 11.4241 4.7928 11.424 4.79279L11.4226 4.84277L11.4243 4.7928C11.4242 4.7928 11.4242 4.7928 11.4242 4.7928ZM11.5115 8.57746C11.0313 8.61303 10.6756 8.27513 10.6045 8.20399C10.4622 8.0795 10.2488 8.0795 10.1065 8.20399C9.98205 8.34626 9.98205 8.55967 10.1065 8.70195L11.5115 8.57746ZM11.5115 8.57746C11.7605 8.55967 12.1695 8.4174 12.2584 8.15064C12.3118 7.97279 12.2406 7.7416 12.0984 7.56376L11.5115 8.57746Z" fill="#198155" stroke="#198155" stroke-width="0.1"/>
<path d="M2.99263 11.7398H19.9589C20.1854 11.7398 20.3468 11.5539 20.3468 11.3341V2.85095C20.3468 2.64722 20.1838 2.46305 19.9589 2.46305H2.99263C2.7889 2.46305 2.60472 2.62601 2.60472 2.85095V11.3518C2.60472 11.5556 2.76769 11.7398 2.99263 11.7398ZM19.571 3.25663V10.9462H3.39831V3.25663H19.571Z" fill="#198155" stroke="#198155" stroke-width="0.1"/>
<path d="M5.87033 2.86845C5.87018 2.66483 5.70726 2.48083 5.48243 2.48083H2.99263C2.7889 2.48083 2.60472 2.64379 2.60472 2.86873V5.35854C2.60472 5.56226 2.76769 5.74644 2.99263 5.74644C4.58484 5.74644 5.88828 4.44393 5.87033 2.86845ZM5.87033 2.86845C5.87033 2.86854 5.87033 2.86864 5.87033 2.86873H5.82033L5.87033 2.86816C5.87033 2.86825 5.87033 2.86835 5.87033 2.86845ZM20.3643 11.3386L20.3645 11.3386V11.3341V8.84426C20.3645 8.64053 20.2016 8.45636 19.9766 8.45636C18.384 8.45636 17.0812 9.75922 17.0812 11.3519C17.0812 11.5556 17.2441 11.7398 17.4691 11.7398H19.9589C20.1858 11.7398 20.3447 11.5541 20.3643 11.3386ZM5.06631 3.25663C4.894 4.09702 4.23614 4.76929 3.39831 4.92575V3.25663H5.06631ZM17.0634 2.85095C17.0634 4.44358 18.3662 5.74644 19.9589 5.74644C20.184 5.74644 20.348 5.56152 20.329 5.33856V2.85095C20.329 2.64722 20.166 2.46305 19.9411 2.46305H17.4513C17.2475 2.46305 17.0634 2.62601 17.0634 2.85095ZM19.571 3.25663V4.92463C18.7306 4.75232 18.0583 4.09446 17.9018 3.25663H19.571ZM19.571 9.27704V10.9462H17.9018C18.0584 10.1067 18.7315 9.43365 19.571 9.27704Z" fill="#198155" stroke="#198155" stroke-width="0.1"/>
<path d="M2.99263 11.7397H5.48243C5.70224 11.7397 5.88811 11.5605 5.88811 11.3695C5.88811 9.77691 4.58526 8.47406 2.99263 8.47406C2.7889 8.47406 2.60472 8.63702 2.60472 8.86196V11.3518C2.60472 11.5555 2.76769 11.7397 2.99263 11.7397ZM3.39831 10.9461V9.27808C4.23869 9.45039 4.91097 10.1082 5.06743 10.9461H3.39831Z" fill="#198155" stroke="#198155" stroke-width="0.1"/>
<path d="M13.7343 11.6542C15.4594 10.7828 16.5442 9.03989 16.5442 7.1014C16.5442 5.16291 15.4772 3.42005 13.7343 2.54861C13.681 2.53083 13.6276 2.51305 13.5743 2.51305H9.35938C9.30603 2.51305 9.25268 2.53083 9.19933 2.54861L13.7343 11.6542ZM13.7343 11.6542C13.6988 11.672 13.6454 11.6898 13.5921 11.6898H9.35938M13.7343 11.6542L9.35938 11.6898M9.35938 11.6898C9.30603 11.6898 9.25268 11.672 9.19933 11.6542L9.35938 11.6898ZM9.17697 11.6989L9.17674 11.6994L9.18351 11.7016L9.18696 11.7028C9.2379 11.7198 9.29785 11.7398 9.35938 11.7398H13.5921C13.6554 11.7398 13.7164 11.719 13.7567 11.6989L13.7569 11.6988C15.4986 10.819 16.5942 9.05895 16.5942 7.1014C16.5942 5.1441 15.5166 3.38385 13.7567 2.50389L13.7569 2.50344L13.7501 2.50118L13.7467 2.50003C13.6958 2.48304 13.6358 2.46305 13.5743 2.46305H9.35938C9.29785 2.46305 9.2379 2.48304 9.18696 2.50003L9.18351 2.50118L9.18334 2.50067L9.17678 2.50399C7.43504 3.38383 6.3394 5.14385 6.3394 7.1014C6.3394 9.0587 7.41705 10.8189 9.17697 11.6989ZM13.4908 10.9462H9.46066C8.02495 10.1883 7.13299 8.73238 7.13299 7.1014C7.13299 5.47042 8.02495 4.01447 9.46066 3.25663H13.4908C14.9265 4.01447 15.8184 5.47042 15.8184 7.1014C15.8184 8.73238 14.9265 10.1883 13.4908 10.9462Z" fill="#198155" stroke="#198155" stroke-width="0.1"/>
</g>
<defs>
<clipPath id="clip0_3217_24884">
<rect width="17.8571" height="10" fill="white" transform="translate(0.400391)"/>
</clipPath>
<clipPath id="clip1_3217_24884">
<rect x="2.54327" y="2.14286" width="17.8571" height="10" rx="1" fill="white"/>
</clipPath>
</defs>
</svg>
