<svg width="21" height="13" viewBox="0 0 21 13" fill="none" xmlns="http://www.w3.org/2000/svg">
<g clip-path="url(#clip0_7_1686)">
<path d="M0.849743 9.59688H17.816C18.0425 9.59688 18.2039 9.41101 18.2039 9.1912V0.70808C18.2039 0.504352 18.0409 0.320178 17.816 0.320178H0.849743C0.646015 0.320178 0.461841 0.48314 0.461841 0.70808V9.20898C0.461841 9.41271 0.624803 9.59688 0.849743 9.59688ZM17.4281 1.11377V8.8033H1.25543V1.11377H17.4281Z" fill="#198155" stroke="#198155" stroke-width="0.1"/>
</g>
<g clip-path="url(#clip1_7_1686)">
<rect x="2.54321" y="2.14288" width="17.8571" height="10" rx="1" fill="#F2FDED"/>
<path d="M11.4402 5.47974V5.47995L11.4447 5.47954C11.6644 5.45957 11.8257 5.29825 11.8457 5.07858L11.8459 5.0786V5.07405V4.7895C11.8459 4.56296 11.66 4.4016 11.4402 4.4016C11.2137 4.4016 11.0523 4.58747 11.0523 4.80729V5.09184C11.0523 5.31508 11.217 5.47974 11.4402 5.47974ZM11.1412 9.39566C11.1412 9.61891 11.3059 9.78357 11.5291 9.78357C11.7524 9.78357 11.9348 9.60112 11.9348 9.37788V9.11111C11.9348 8.88456 11.7489 8.72321 11.5291 8.72321C11.3026 8.72321 11.1412 8.90908 11.1412 9.1289V9.39566Z" fill="#198155" stroke="#198155" stroke-width="0.1"/>
<path d="M11.424 4.79283C10.8983 4.77475 10.2128 5.00962 9.98846 5.60776L9.98846 5.60775L9.98829 5.60822C9.84014 6.01565 9.91425 6.49553 10.1729 6.84651L10.1729 6.84653L10.1737 6.84767C10.5082 7.27509 10.9736 7.32906 11.3465 7.36458C11.7052 7.40045 11.9151 7.43597 12.0601 7.59617C12.1955 7.76605 12.2571 7.97943 12.2106 8.13558C12.1722 8.24983 12.0624 8.34386 11.9228 8.41259C11.7842 8.48079 11.626 8.51917 11.5078 8.52762L11.5077 8.52763C11.0515 8.56142 10.7101 8.23904 10.6397 8.16867L10.6398 8.16859L10.6373 8.16639C10.4762 8.02541 10.2346 8.02541 10.0735 8.16639L10.0732 8.16606L10.0688 8.1711C9.9278 8.33222 9.9278 8.57378 10.0688 8.73491L10.0687 8.73498L10.0711 8.73734C10.2152 8.88143 10.7078 9.33886 11.4224 9.33886H11.4233C11.4761 9.33886 11.5336 9.33886 11.609 9.32043C11.863 9.29277 12.1577 9.211 12.4129 9.05834C12.6696 8.9048 12.8886 8.67793 12.982 8.36063C13.112 7.93328 12.9818 7.41759 12.669 7.06806L12.6688 7.06777C12.2989 6.66097 11.8182 6.607 11.4452 6.57148C11.1031 6.53546 10.9312 6.49987 10.822 6.35968C10.725 6.23019 10.6929 6.03434 10.7406 5.89061C10.7791 5.78323 10.873 5.69836 10.9964 5.64188C11.1197 5.58547 11.267 5.5601 11.4015 5.56851L11.4022 5.56854C11.7103 5.58395 11.9046 5.78402 11.9906 5.87254C11.9972 5.87929 12.0031 5.88538 12.0084 5.8907C12.1506 6.05187 12.3946 6.07263 12.558 5.9297C12.7203 5.78767 12.7416 5.54275 12.5983 5.37898L12.598 5.37868C12.4534 5.21602 12.0501 4.8113 11.424 4.79283ZM11.424 4.79283C11.424 4.79283 11.424 4.79283 11.4239 4.79283L11.4224 4.84281L11.4242 4.79284C11.4241 4.79283 11.4241 4.79283 11.424 4.79283ZM10.6044 8.20402C10.6755 8.27516 11.0312 8.61306 11.5114 8.57749L10.1064 8.70198C9.98193 8.55971 9.98193 8.3463 10.1064 8.20402C10.2487 8.07953 10.4621 8.07953 10.6044 8.20402Z" fill="#198155" stroke="#198155" stroke-width="0.1"/>
<path d="M2.99257 11.7398H19.9588C20.1853 11.7398 20.3467 11.5539 20.3467 11.3341V2.85096C20.3467 2.64724 20.1837 2.46306 19.9588 2.46306H2.99257C2.78884 2.46306 2.60466 2.62602 2.60466 2.85096V11.3519C2.60466 11.5556 2.76762 11.7398 2.99257 11.7398ZM19.5709 3.25665V10.9462H3.39825V3.25665H19.5709Z" fill="#198155" stroke="#198155" stroke-width="0.1"/>
<path d="M5.87027 2.86846C5.87012 2.66485 5.7072 2.48085 5.48237 2.48085H2.99256C2.78884 2.48085 2.60466 2.64381 2.60466 2.86875V5.35855C2.60466 5.56228 2.76763 5.74645 2.99256 5.74645C4.58478 5.74645 5.88822 4.44395 5.87027 2.86846ZM5.87027 2.86846C5.87027 2.86856 5.87027 2.86865 5.87027 2.86875H5.82027L5.87027 2.86817C5.87027 2.86827 5.87027 2.86836 5.87027 2.86846ZM20.3643 11.3386L20.3645 11.3386V11.3341V8.84428C20.3645 8.64055 20.2015 8.45638 19.9766 8.45638C18.3839 8.45638 17.0811 9.75923 17.0811 11.3519C17.0811 11.5556 17.2441 11.7398 17.469 11.7398H19.9588C20.1858 11.7398 20.3447 11.5541 20.3643 11.3386ZM5.06625 3.25665C4.89394 4.09703 4.23608 4.76931 3.39825 4.92577V3.25665H5.06625ZM17.0633 2.85096C17.0633 4.4436 18.3662 5.74645 19.9588 5.74645C20.184 5.74645 20.3479 5.56153 20.3289 5.33856V2.85096C20.3289 2.64724 20.166 2.46306 19.941 2.46306H17.4512C17.2475 2.46306 17.0633 2.62602 17.0633 2.85096ZM19.5709 3.25665V4.92465C18.7305 4.75234 18.0582 4.09448 17.9018 3.25665H19.5709ZM19.5709 9.27706V10.9462H17.9018C18.0584 10.1067 18.7314 9.43366 19.5709 9.27706Z" fill="#198155" stroke="#198155" stroke-width="0.1"/>
<path d="M2.99256 11.7397H5.48237C5.70218 11.7397 5.88805 11.5606 5.88805 11.3696C5.88805 9.77696 4.5852 8.47411 2.99256 8.47411C2.78884 8.47411 2.60466 8.63707 2.60466 8.86201V11.3518C2.60466 11.5555 2.76762 11.7397 2.99256 11.7397ZM3.39825 9.27813C4.23863 9.45044 4.91091 10.1083 5.06737 10.9461H3.39825V9.27813Z" fill="#198155" stroke="#198155" stroke-width="0.1"/>
<path d="M13.7343 11.6542C15.4594 10.7828 16.5442 9.03991 16.5442 7.10141C16.5442 5.16292 15.4772 3.42006 13.7343 2.54863C13.681 2.53085 13.6276 2.51306 13.5743 2.51306H9.35938C9.30603 2.51306 9.25268 2.53085 9.19933 2.54863L13.7343 11.6542ZM13.7343 11.6542C13.6988 11.672 13.6454 11.6898 13.5921 11.6898H9.35938M13.7343 11.6542L9.35938 11.6898M9.35938 11.6898C9.30603 11.6898 9.25268 11.672 9.19933 11.6542L9.35938 11.6898ZM9.17696 11.6989L9.17674 11.6994L9.18351 11.7016L9.18696 11.7028C9.2379 11.7198 9.29785 11.7398 9.35938 11.7398H13.5921C13.6554 11.7398 13.7164 11.719 13.7567 11.6989L13.7569 11.6988C15.4986 10.819 16.5942 9.05896 16.5942 7.10141C16.5942 5.14411 15.5166 3.38387 13.7567 2.50391L13.7569 2.50345L13.7501 2.5012L13.7467 2.50005C13.6958 2.48306 13.6358 2.46306 13.5743 2.46306H9.35938C9.29785 2.46306 9.2379 2.48306 9.18696 2.50005L9.18351 2.5012L9.18334 2.50069L9.17678 2.504C7.43504 3.38385 6.3394 5.14386 6.3394 7.10141C6.3394 9.05872 7.41705 10.819 9.17696 11.6989ZM13.4908 10.9462H9.46066C8.02495 10.1883 7.13299 8.7324 7.13299 7.10141C7.13299 5.47043 8.02495 4.01448 9.46066 3.25665H13.4908C14.9265 4.01448 15.8184 5.47043 15.8184 7.10141C15.8184 8.7324 14.9265 10.1883 13.4908 10.9462Z" fill="#198155" stroke="#198155" stroke-width="0.1"/>
</g>
<defs>
<clipPath id="clip0_7_1686">
<rect width="17.8571" height="10" fill="white" transform="translate(0.400391)"/>
</clipPath>
<clipPath id="clip1_7_1686">
<rect x="2.54321" y="2.14288" width="17.8571" height="10" rx="1" fill="white"/>
</clipPath>
</defs>
</svg>
