<svg width="10" height="11" viewBox="0 0 10 11" fill="none" xmlns="http://www.w3.org/2000/svg">
<path d="M0.212944 7H2.79219V11H0.212944V7Z" fill="white"/>
<path d="M1.43092 3.71429L1.76872 4.75076H2.86184L1.97749 5.39134L2.31528 6.42781L1.43092 5.78723L0.546563 6.42781L0.884358 5.39134L0 4.75076H1.09313L1.43092 3.71429Z" fill="white"/>
<path d="M3.36536 3.28571H5.9446V11H3.36536V3.28571Z" fill="white"/>
<path d="M4.58333 0L4.92113 1.03647H6.01426L5.1299 1.67705L5.46769 2.71353L4.58333 2.07295L3.69898 2.71353L4.03677 1.67705L3.15241 1.03647H4.24554L4.58333 0Z" fill="white"/>
<path d="M6.51777 5.28571H9.09701V11H6.51777V5.28571Z" fill="white"/>
<path d="M7.73574 2L8.07354 3.03647H9.16667L8.28231 3.67705L8.6201 4.71353L7.73574 4.07295L6.85139 4.71353L7.18918 3.67705L6.30482 3.03647H7.39795L7.73574 2Z" fill="white"/>
</svg>
