<svg width="10" height="12" viewBox="0 0 10 12" fill="none" xmlns="http://www.w3.org/2000/svg">
<path d="M0.232303 7.63636H3.04603V12H0.232303V7.63636Z" fill="#23C16B"/>
<path d="M1.56101 4.05195L1.92951 5.18265H3.12201L2.15726 5.88146L2.52576 7.01216L1.56101 6.31335L0.596251 7.01216L0.964754 5.88146L0 5.18265H1.1925L1.56101 4.05195Z" fill="#23C16B"/>
<path d="M3.6713 3.58442H6.48502V12H3.6713V3.58442Z" fill="#23C16B"/>
<path d="M5 0L5.3685 1.1307H6.56101L5.59625 1.82951L5.96475 2.96021L5 2.2614L4.03525 2.96021L4.40375 1.82951L3.43899 1.1307H4.6315L5 0Z" fill="#23C16B"/>
<path d="M7.11029 5.76623H9.92401V12H7.11029V5.76623Z" fill="#23C16B"/>
<path d="M8.43899 2.18182L8.8075 3.31252H10L9.03524 4.01133L9.40375 5.14203L8.43899 4.44322L7.47424 5.14203L7.84274 4.01133L6.87799 3.31252H8.07049L8.43899 2.18182Z" fill="#23C16B"/>
</svg>
